<svg width="45" height="47" viewBox="0 0 45 47" fill="none" xmlns="http://www.w3.org/2000/svg">
<path d="M15.0514 37.1769C15.0514 37.3657 14.8427 37.5168 14.5796 37.5168C14.2802 37.5451 14.0716 37.394 14.0716 37.1769C14.0716 36.9881 14.2802 36.837 14.5433 36.837C14.8155 36.8087 15.0514 36.9598 15.0514 37.1769ZM12.2298 36.7521C12.1663 36.9409 12.3478 37.158 12.62 37.2147C12.8558 37.3091 13.128 37.2147 13.1825 37.0258C13.2369 36.837 13.0645 36.6199 12.7923 36.5349C12.5565 36.4688 12.2933 36.5632 12.2298 36.7521ZM16.2399 36.5916C15.9768 36.6577 15.7954 36.837 15.8226 37.0542C15.8498 37.243 16.0857 37.3657 16.3579 37.2996C16.621 37.2335 16.8024 37.0542 16.7752 36.8653C16.748 36.686 16.503 36.5632 16.2399 36.5916ZM22.2097 0.414551C9.62601 0.414551 0 10.3557 0 23.45C0 33.9198 6.33266 42.8791 15.378 46.0323C16.5393 46.2495 16.9476 45.5037 16.9476 44.89C16.9476 44.3047 16.9204 41.0759 16.9204 39.0934C16.9204 39.0934 10.5696 40.5095 9.23589 36.28C9.23589 36.28 8.20161 33.5328 6.71371 32.8247C6.71371 32.8247 4.63609 31.3425 6.85887 31.3708C6.85887 31.3708 9.11794 31.5596 10.3609 33.8065C12.3478 37.4507 15.6774 36.4028 16.9748 35.7797C17.1835 34.2691 17.7732 33.2212 18.4264 32.5981C13.3548 32.0128 8.2379 31.2481 8.2379 22.1661C8.2379 19.5699 8.92742 18.267 10.379 16.6055C10.1431 15.9918 9.37198 13.4617 10.6149 10.1952C12.5111 9.58153 16.875 12.7442 16.875 12.7442C18.6895 12.2155 20.6401 11.9417 22.5726 11.9417C24.505 11.9417 26.4556 12.2155 28.2702 12.7442C28.2702 12.7442 32.6341 9.57209 34.5302 10.1952C35.7732 13.4711 35.002 15.9918 34.7661 16.6055C36.2177 18.2765 37.1069 19.5793 37.1069 22.1661C37.1069 31.2764 31.7631 32.0034 26.6915 32.5981C27.5262 33.3439 28.2339 34.7601 28.2339 36.9786C28.2339 40.1602 28.2067 44.097 28.2067 44.8711C28.2067 45.4848 28.624 46.2306 29.7762 46.0135C38.8488 42.8791 45 33.9198 45 23.45C45 10.3557 34.7933 0.414551 22.2097 0.414551ZM8.81855 32.9758C8.7006 33.0702 8.72782 33.2873 8.88206 33.4667C9.02722 33.6177 9.23589 33.6838 9.35383 33.5611C9.47177 33.4667 9.44456 33.2495 9.29032 33.0702C9.14516 32.9191 8.93649 32.853 8.81855 32.9758ZM7.83871 32.2111C7.7752 32.3338 7.86593 32.4848 8.04738 32.5792C8.19254 32.6736 8.37399 32.6453 8.4375 32.5132C8.50101 32.3904 8.41028 32.2394 8.22883 32.145C8.04738 32.0883 7.90222 32.1166 7.83871 32.2111ZM10.7782 35.572C10.6331 35.6947 10.6875 35.9779 10.8962 36.1573C11.1048 36.3744 11.3679 36.4028 11.4859 36.2517C11.6038 36.129 11.5494 35.8457 11.3679 35.6664C11.1683 35.4492 10.8962 35.4209 10.7782 35.572ZM9.74395 34.1842C9.59879 34.2786 9.59879 34.524 9.74395 34.7412C9.88911 34.9583 10.1341 35.0527 10.252 34.9583C10.3972 34.8356 10.3972 34.5901 10.252 34.373C10.125 34.1558 9.88911 34.0614 9.74395 34.1842Z" fill="#183153"/>
</svg>
