<svg width="45" height="47" viewBox="0 0 45 47" fill="none" xmlns="http://www.w3.org/2000/svg">
<path d="M22.505 11.537C16.1202 11.537 10.9702 16.7633 10.9702 23.2427C10.9702 29.7221 16.1202 34.9484 22.505 34.9484C28.8898 34.9484 34.0399 29.7221 34.0399 23.2427C34.0399 16.7633 28.8898 11.537 22.505 11.537ZM22.505 30.8529C18.379 30.8529 15.0059 27.44 15.0059 23.2427C15.0059 19.0453 18.3689 15.6325 22.505 15.6325C26.6411 15.6325 30.0042 19.0453 30.0042 23.2427C30.0042 27.44 26.6311 30.8529 22.505 30.8529ZM37.2022 11.0582C37.2022 12.5761 35.9975 13.7885 34.5117 13.7885C33.0159 13.7885 31.8212 12.5659 31.8212 11.0582C31.8212 9.55038 33.0259 8.32786 34.5117 8.32786C35.9975 8.32786 37.2022 9.55038 37.2022 11.0582ZM44.8419 13.8292C44.6712 10.1718 43.848 6.93214 41.2078 4.26296C38.5775 1.59378 35.3851 0.758386 31.7811 0.575007C28.0666 0.361065 16.9334 0.361065 13.2189 0.575007C9.62493 0.748198 6.43252 1.58359 3.79225 4.25277C1.15198 6.92195 0.338818 10.1616 0.158115 13.819C-0.052705 17.5885 -0.052705 28.8867 0.158115 32.6561C0.328779 36.3135 1.15198 39.5532 3.79225 42.2224C6.43252 44.8916 9.61489 45.727 13.2189 45.9103C16.9334 46.1243 28.0666 46.1243 31.7811 45.9103C35.3851 45.7372 38.5775 44.9018 41.2078 42.2224C43.838 39.5532 44.6612 36.3135 44.8419 32.6561C45.0527 28.8867 45.0527 17.5987 44.8419 13.8292ZM40.0432 36.7006C39.2602 38.6974 37.7443 40.2358 35.7666 41.0406C32.8051 42.2326 25.7777 41.9575 22.505 41.9575C19.2323 41.9575 12.1949 42.2224 9.24345 41.0406C7.27579 40.246 5.7599 38.7076 4.96682 36.7006C3.79225 33.6953 4.0633 26.5639 4.0633 23.2427C4.0633 19.9215 3.80229 12.7799 4.96682 9.7847C5.74986 7.78791 7.26576 6.24956 9.24345 5.44474C12.205 4.25277 19.2323 4.52784 22.505 4.52784C25.7777 4.52784 32.8151 4.26296 35.7666 5.44474C37.7342 6.23938 39.2501 7.77772 40.0432 9.7847C41.2178 12.7901 40.9467 19.9215 40.9467 23.2427C40.9467 26.5639 41.2178 33.7055 40.0432 36.7006Z" fill="#183153"/>
</svg>
