<svg width="45" height="47" viewBox="0 0 45 47" fill="none" xmlns="http://www.w3.org/2000/svg">
<path d="M41.7857 0.414551H3.20424C1.43638 0.414551 0 1.89226 0 3.70628V42.7791C0 44.5931 1.43638 46.0708 3.20424 46.0708H41.7857C43.5536 46.0708 45 44.5931 45 42.7791V3.70628C45 1.89226 43.5536 0.414551 41.7857 0.414551ZM13.6004 39.5485H6.9308V17.7598H13.6105V39.5485H13.6004ZM10.2656 14.784C8.12612 14.784 6.39844 13.021 6.39844 10.8605C6.39844 8.69994 8.12612 6.93687 10.2656 6.93687C12.3951 6.93687 14.1328 8.69994 14.1328 10.8605C14.1328 13.0312 12.4051 14.784 10.2656 14.784ZM38.6016 39.5485H31.9319V28.9497C31.9319 26.4223 31.8817 23.1713 28.4665 23.1713C24.9911 23.1713 24.4587 25.9229 24.4587 28.7663V39.5485H17.7891V17.7598H24.1875V20.7357H24.2779C25.1719 19.0235 27.3516 17.2197 30.596 17.2197C37.346 17.2197 38.6016 21.7344 38.6016 27.6045V39.5485Z" fill="#183153"/>
</svg>
